<svg width="48" height="48" viewBox="0 0 48 48" fill="none" xmlns="http://www.w3.org/2000/svg">
<path fill-rule="evenodd" clip-rule="evenodd" d="M24 48C37.2549 48 48 37.2548 48 24C48 10.7452 37.2549 0 24 0C10.7451 0 0 10.7452 0 24C0 37.2548 10.7451 48 24 48ZM22.24 21.81C22.34 22.12 22.4301 22.42 22.53 22.73C22.62 23.03 22.71 23.32 22.8 23.589C22.8535 23.7442 22.9034 23.8951 22.9478 24.0364C22.978 24.1327 23.0057 24.2245 23.03 24.31H20.49C20.64 23.89 20.79 23.42 20.9301 22.91C21.09 22.41 21.24 21.91 21.39 21.43C21.53 21 21.64 20.57 21.73 20.14H21.75C21.7891 20.2739 21.8281 20.4141 21.8689 20.5604C21.9011 20.6764 21.9346 20.7963 21.97 20.92C22.05 21.21 22.14 21.5 22.24 21.81ZM16.25 12.3H31.75C34.1 12.3 36 14.2 36 16.55V31.45C36 33.8 34.1 35.7 31.75 35.7H16.25C13.9 35.7 12 33.8 12 31.45V16.55C12 14.2 13.9 12.3 16.25 12.3ZM24.609 28.83H26.7C26.8 28.83 26.83 28.779 26.8 28.67L23.15 18.37C23.14 18.32 23.1 18.29 23.02 18.29H20.4301C20.38 18.3 20.34 18.35 20.35 18.4C20.35 18.62 20.33 18.84 20.29 19.05C20.2617 19.1349 20.2384 19.2148 20.2166 19.2897C20.2075 19.3207 20.1987 19.3508 20.1899 19.38L16.97 28.651C16.9399 28.77 16.97 28.831 17.08 28.831H18.96C19.0065 28.8356 19.0504 28.8219 19.0847 28.7951C19.1167 28.77 19.1404 28.7335 19.15 28.69L19.91 26.34H23.63L24.45 28.72C24.4624 28.7634 24.494 28.7991 24.5327 28.8176C24.5564 28.8289 24.5828 28.8338 24.609 28.83ZM29.9709 28.84C30.061 28.84 30.1 28.79 30.1 28.68V20.98C30.1 20.89 30.061 20.84 29.9709 20.84H27.991C27.901 20.84 27.86 20.88 27.86 20.98V28.68C27.86 28.779 27.91 28.84 28.01 28.84H29.9709ZM28.98 20C29.3199 20.02 29.66 19.89 29.891 19.65C30.13 19.4 30.25 19.07 30.24 18.73C30.25 18.4 30.13 18.08 29.91 17.84C29.689 17.61 29.391 17.49 29 17.49C28.67 17.49 28.35 17.61 28.108 17.84C27.869 18.07 27.739 18.39 27.749 18.73C27.739 19.07 27.859 19.4 28.089 19.65C28.33 19.88 28.65 20.01 28.98 20Z" fill="#FF9A00"/>
</svg>
