<svg width="48" height="48" viewBox="0 0 48 48" fill="none" xmlns="http://www.w3.org/2000/svg">
<path fill-rule="evenodd" clip-rule="evenodd" d="M24 48C37.2549 48 48 37.2548 48 24C48 10.7452 37.2549 0 24 0C10.7451 0 0 10.7452 0 24C0 37.2548 10.7451 48 24 48ZM21.9561 23.24H23.7679C25.1689 23.24 25.942 22.676 25.942 21.668C25.942 20.724 25.278 20.202 24.108 20.202H21.9561V23.24ZM21.957 24.446H24.094C25.625 24.446 26.42 25.009 26.42 26.109C26.42 27.209 25.647 27.794 24.188 27.794H21.957V24.446ZM36 24.608V23.39C34.8719 23.282 34.183 22.446 33.774 21.122C33.3669 19.803 33.311 18.185 33.354 16.936C33.399 15.636 32.387 14.436 31.017 14.436H16.985C15.615 14.436 14.6021 15.636 14.647 16.936C14.691 18.185 14.635 19.803 14.2271 21.122C13.819 22.446 13.1281 23.282 12 23.39V24.608C13.1281 24.716 13.818 25.552 14.228 26.876C14.635 28.195 14.691 29.813 14.6479 31.062C14.6021 32.362 15.615 33.562 16.985 33.562H31.017C32.386 33.562 33.399 32.362 33.354 31.062C33.311 29.813 33.3669 28.195 33.774 26.876C34.183 25.552 34.8719 24.716 36 24.608ZM25.705 23.719C27.12 23.874 28.073 24.853 28.073 26.207C28.073 27.997 26.738 29.083 24.52 29.083H20.339V18.911H24.499C26.348 18.911 27.561 19.912 27.561 21.449C27.561 22.527 26.745 23.493 25.705 23.662V23.719Z" fill="#7952B3"/>
</svg>
