<svg width="48" height="48" viewBox="0 0 48 48" fill="none" xmlns="http://www.w3.org/2000/svg">
<path fill-rule="evenodd" clip-rule="evenodd" d="M24 48C37.2548 48 48 37.2548 48 24C48 10.7452 37.2548 0 24 0C10.7452 0 0 10.7452 0 24C0 37.2548 10.7452 48 24 48ZM32.59 33.563L34.5 12H13.5L15.412 33.562L23.977 36L32.59 33.563ZM17.41 16.41L30.59 16.413V16.414L29.373 29.758L24 31.288L18.535 29.585L18.245 25.73H20.855L21.043 27.84L23.999 28.65L26.909 27.846L27.275 24.323H21.093L20.853 21.75H27.493L27.748 19.034L17.623 19.032L17.41 16.41Z" fill="#1572B6"/>
</svg>
