<svg width="48" height="48" viewBox="0 0 48 48" fill="none" xmlns="http://www.w3.org/2000/svg">
<path fill-rule="evenodd" clip-rule="evenodd" d="M24 48C37.2549 48 48 37.2548 48 24C48 10.7452 37.2549 0 24 0C10.7451 0 0 10.7452 0 24C0 37.2548 10.7451 48 24 48ZM27.755 20.981C26.09 20.981 24.736 22.336 24.736 24C24.736 25.664 26.0909 27.019 27.755 27.019H27.853C29.5179 27.019 30.8719 25.664 30.8719 24C30.8719 22.336 29.517 20.981 27.853 20.981H27.8521H27.755ZM30.3121 20.2454C31.5339 19.4419 32.342 18.0584 32.342 16.49C32.342 14.014 30.328 12 27.8521 12H24.736H23.264H20.1479C17.672 12 15.658 14.015 15.658 16.491C15.658 18.0593 16.4661 19.4423 17.6877 20.2455C16.4661 21.0486 15.658 22.4316 15.658 24C15.658 25.5685 16.4662 26.9515 17.688 27.7547C16.4656 28.5577 15.657 29.9411 15.657 31.51C15.657 33.986 17.683 36 20.172 36C22.688 36 24.735 33.964 24.735 31.461V28.49H24.736V27.3218C25.5338 28.0473 26.5931 28.49 27.754 28.49H27.8521C30.328 28.49 32.342 26.476 32.342 24C32.342 22.4316 31.5339 21.0485 30.3121 20.2454ZM23.265 23.9056C23.2644 23.937 23.264 23.9684 23.264 24C23.264 24.0316 23.2644 24.063 23.265 24.0944V27.019H20.1479C18.484 27.019 17.129 25.664 17.129 24C17.129 22.336 18.483 20.981 20.1479 20.981H23.264H23.265V23.9056ZM24.736 19.51H27.754H27.8521C29.517 19.51 30.871 18.155 30.871 16.491C30.871 14.827 29.516 13.472 27.8521 13.472H24.736V19.51ZM23.264 13.471H20.1479C18.483 13.471 17.129 14.826 17.129 16.49C17.129 18.154 18.483 19.51 20.1479 19.51H23.264V13.471ZM23.266 28.49H20.1479C19.3477 28.491 18.5803 28.8094 18.0144 29.3754C17.4485 29.9413 17.13 30.7086 17.129 31.509C17.129 33.174 18.494 34.528 20.173 34.528C21.8781 34.528 23.266 33.152 23.266 31.46V28.49Z" fill="#F24E1E"/>
</svg>
