<svg width="48" height="48" viewBox="0 0 48 48" fill="none" xmlns="http://www.w3.org/2000/svg">
<path fill-rule="evenodd" clip-rule="evenodd" d="M24 48C37.2549 48 48 37.2548 48 24C48 10.7452 37.2549 0 24 0C10.7451 0 0 10.7452 0 24C0 37.2548 10.7451 48 24 48ZM25.067 12.452L35.546 22.93C36.151 23.535 36.151 24.514 35.546 25.117L25.116 35.547C24.512 36.151 23.5341 36.151 22.9301 35.547L12.45 25.07C11.85 24.465 11.85 23.486 12.45 22.881L19.636 15.7L22.348 18.425C22.068 19.092 22.199 19.889 22.744 20.434C22.92 20.613 23.127 20.744 23.344 20.835V27.424C23.126 27.514 22.921 27.65 22.739 27.83C22.02 28.549 22.02 29.709 22.739 30.428C23.459 31.149 24.629 31.149 25.348 30.428C26.061 29.711 26.061 28.549 25.348 27.828C25.202 27.683 25.036 27.566 24.86 27.48V20.955L27.349 23.431C27.079 24.09 27.214 24.886 27.7531 25.427C28.472 26.146 29.634 26.146 30.353 25.427C31.074 24.707 31.074 23.543 30.353 22.823C29.84 22.31 29.098 22.165 28.453 22.388L25.795 19.728C26.015 19.086 25.873 18.343 25.3571 17.828C24.847 17.317 24.113 17.172 23.468 17.387L20.708 14.627L22.879 12.452C23.485 11.849 24.463 11.849 25.067 12.452Z" fill="#F05032"/>
</svg>
