<svg width="48" height="48" viewBox="0 0 48 48" fill="none" xmlns="http://www.w3.org/2000/svg">
<path fill-rule="evenodd" clip-rule="evenodd" d="M24 48C37.2548 48 48 37.2548 48 24C48 10.7452 37.2548 0 24 0C10.7452 0 0 10.7452 0 24C0 37.2548 10.7452 48 24 48ZM32.59 33.563L34.5 12H13.5L15.413 33.562L23.977 36L32.59 33.563ZM20.299 19.032L20.531 21.75V21.751H30.123L29.379 29.908L24 31.351L18.578 29.901L18.248 25.73H20.857L21.045 27.84L24 28.65L26.91 27.846L27.236 24.42H18.11L17.412 16.41L30.588 16.413L30.358 19.035L20.299 19.032Z" fill="#E34F26"/>
</svg>
