<svg width="48" height="48" viewBox="0 0 48 48" fill="none" xmlns="http://www.w3.org/2000/svg">
<path fill-rule="evenodd" clip-rule="evenodd" d="M24 48C37.2548 48 48 37.2548 48 24C48 10.7452 37.2548 0 24 0C10.7452 0 0 10.7452 0 24C0 37.2548 10.7452 48 24 48ZM31.031 27.403C33.146 28.261 33.859 29.181 34.034 30.276L33.988 30.209C34.1502 31.1324 33.9524 31.7407 33.9163 31.852L33.914 31.859C33.133 34.529 28.783 34.619 27.043 32.863C26.9711 32.7791 26.904 32.7036 26.8409 32.6327C26.5883 32.3487 26.4011 32.1381 26.233 31.754L28.063 30.703C28.558 31.453 29.007 31.859 29.818 32.039C30.914 32.174 32.024 31.799 31.784 30.629C31.6359 30.071 30.9009 29.7615 30.0432 29.4003C29.4238 29.1395 28.7404 28.8517 28.168 28.424C26.788 27.494 26.459 25.244 27.599 23.953C27.989 23.473 28.633 23.113 29.309 22.948L30.014 22.859C31.379 22.828 32.218 23.188 32.848 23.893C33.03 24.072 33.164 24.253 33.434 24.673C33.1402 24.8559 32.9662 24.9643 32.7931 25.0743C32.5414 25.2342 32.2917 25.3974 31.679 25.798C31.453 25.318 31.093 25.018 30.703 24.898C30.103 24.718 29.338 24.912 29.188 25.558C29.129 25.753 29.143 25.933 29.234 26.263C29.4285 26.7072 29.9914 26.9496 30.5857 27.2056C30.7339 27.2695 30.8841 27.3341 31.031 27.403ZM36 12H12V36H36V12ZM22.803 23.031H25.051L25.047 23.087C25.047 23.7782 25.0483 24.4676 25.0497 25.156C25.0523 26.5292 25.055 27.8978 25.047 29.266C25.0477 29.4524 25.0507 29.636 25.0535 29.8164C25.0704 30.8706 25.0855 31.8179 24.65 32.612C24.297 33.332 23.622 33.797 22.839 34.023C21.636 34.293 20.487 34.128 19.632 33.618C19.058 33.273 18.613 32.731 18.308 32.101L20.133 30.976C20.1456 30.976 20.1749 31.0264 20.215 31.0954C20.2288 31.1191 20.2439 31.1451 20.26 31.172C20.493 31.561 20.694 31.831 21.09 32.027C21.476 32.148 22.326 32.236 22.656 31.547C22.8168 31.2687 22.8086 30.4895 22.799 29.5584C22.7965 29.3253 22.794 29.0827 22.794 28.836C22.794 27.8651 22.7963 26.898 22.7985 25.9313C22.8008 24.9653 22.803 23.9996 22.803 23.031Z" fill="#F7DF1E"/>
</svg>
