<svg width="48" height="48" viewBox="0 0 48 48" fill="none" xmlns="http://www.w3.org/2000/svg">
<path fill-rule="evenodd" clip-rule="evenodd" d="M24 48C37.2549 48 48 37.2548 48 24C48 10.7452 37.2549 0 24 0C10.7451 0 0 10.7452 0 24C0 37.2548 10.7451 48 24 48ZM33.484 16.784C34.3669 16.722 34.481 16.696 35.157 16.412C35.636 16.21 35.788 16.204 35.92 16.406C36.072 16.633 35.996 17.346 35.788 17.763C35.554 18.218 35.321 18.463 34.601 18.968C34.248 19.221 33.806 19.586 33.623 19.776C33.339 20.079 33.27 20.205 33.1429 20.634C33.0333 20.976 32.9429 21.3239 32.8719 21.676C32.676 22.73 32.026 25.134 31.799 25.652C31.0861 27.274 30.505 28.056 29.672 28.536L29.319 28.738L29.35 28.41C29.3597 28.3157 29.3712 28.2112 29.3817 28.1193C29.3916 28.0329 29.4008 27.9575 29.407 27.912C29.444 27.609 29.3311 27.559 29.224 27.829C28.681 29.168 27.861 30.297 27.0341 30.859C26.4091 31.282 25.557 31.616 24.938 31.679C24.535 31.724 24.528 31.711 24.85 31.364C25.121 31.061 25.525 30.468 25.7841 29.969C26.175 29.25 26.384 28.524 26.4969 27.558C26.548 27.129 26.34 27.407 26.131 28.05C26.0179 28.404 25.759 28.902 25.6331 29.035C25.437 29.231 25.267 29.25 24.333 29.224C23.809 29.205 23.361 29.18 23.335 29.168C23.311 29.149 23.108 29.117 22.881 29.092C22.6565 29.0732 22.3947 29.0417 22.2844 29.0284L22.281 29.028C21.158 28.883 20.274 28.871 19.694 28.978C19.454 29.022 19.182 29.072 19.1 29.092C18.861 29.136 17.92 29.634 17.144 30.134C16.418 30.594 15.01 31.301 14.36 31.534C13.925 31.686 13.616 31.736 13.099 31.742C12.701 31.742 12.688 31.736 12.6689 31.572C12.65 31.395 12.808 31.105 13.243 30.524C13.382 30.341 13.483 30.184 13.4709 30.171C13.458 30.158 13.376 30.114 13.288 30.07C13.2571 30.0547 13.2072 30.0233 13.1462 29.9818C13.0317 29.9038 12.8783 29.7899 12.738 29.679C12.53 29.515 12.271 29.331 12.177 29.281L12 29.193L12.2271 28.978C12.536 28.688 12.915 28.594 13.559 28.644C13.7845 28.6588 14.0096 28.6798 14.234 28.707C15.3629 28.9066 15.8669 28.9995 16.2545 28.8285C16.5776 28.686 16.8199 28.3601 17.276 27.76C17.964 26.858 18.627 26.271 19.479 25.822C19.713 25.696 20.7729 25.311 21.8459 24.958C24.724 24.005 25.178 23.841 25.948 23.481C27.0081 22.97 27.514 22.604 28.088 21.891C28.353 21.569 29.0031 20.628 29.0031 20.571C29.0031 20.496 29.9561 18.981 30.252 18.583C30.877 17.743 31.522 17.239 32.272 16.993C32.7271 16.841 32.834 16.829 33.484 16.784Z" fill="#003545"/>
</svg>
