<svg width="48" height="48" viewBox="0 0 48 48" fill="none" xmlns="http://www.w3.org/2000/svg">
<path fill-rule="evenodd" clip-rule="evenodd" d="M24 48C37.2549 48 48 37.2548 48 24C48 10.7452 37.2549 0 24 0C10.7451 0 0 10.7452 0 24C0 37.2548 10.7451 48 24 48ZM28.2697 17.5086C28.3098 17.5038 28.3538 17.501 28.405 17.501L28.407 17.499C28.4454 17.5367 28.4999 17.5643 28.5426 17.6011C28.5601 17.6161 28.5754 17.6326 28.587 17.652C28.6051 17.6764 28.6152 17.7011 28.6267 17.726C28.637 17.7479 28.6482 17.77 28.667 17.792C28.667 17.953 28.621 18.059 28.527 18.125L28.5129 18.14C28.459 18.034 28.413 17.927 28.359 17.82C28.291 17.727 28.199 17.651 28.145 17.547H28.131V17.534C28.1759 17.5235 28.2198 17.5145 28.2697 17.5086ZM16.843 30.695H17.77H17.7729C17.729 29.025 17.587 27.18 17.345 25.165H16.25L14.903 29.229H14.895L13.5601 25.165H12.41C12.192 26.885 12.0551 28.729 12 30.695H12.845C12.8655 29.2234 12.9305 27.7527 13.04 26.285H13.05L14.45 30.695H15.155L16.5649 26.285H16.573C16.7268 27.7504 16.8169 29.2218 16.843 30.695ZM20.295 31.075C20.911 30.148 21.4091 28.66 21.787 26.615H20.907C20.75 27.871 20.472 29.034 20.072 30.098C20.1 29.885 20.031 29.511 19.8669 28.975L19.14 26.615H18.23L19.244 29.771C19.397 30.245 19.474 30.56 19.474 30.715C19.474 30.938 19.376 31.14 19.179 31.32C19.015 31.467 18.8 31.542 18.532 31.542C18.4634 31.542 18.3984 31.54 18.3373 31.5362C18.2683 31.5318 18.2043 31.525 18.146 31.516V32.01C18.3719 32.102 18.559 32.148 18.712 32.148C19.285 32.148 19.813 31.791 20.295 31.075ZM31.4821 30.695H34.1121V30.015H32.3669V25.165H31.4821V30.695ZM29.776 30.33L30.792 30.83H30.795L30.4351 31.452L29.11 30.68C28.891 30.745 28.649 30.778 28.385 30.778C27.679 30.778 27.152 30.573 26.802 30.163C26.418 29.709 26.228 28.995 26.228 28.023C26.228 27.034 26.444 26.286 26.874 25.778C27.27 25.313 27.8199 25.081 28.524 25.081C29.9611 25.081 30.679 25.997 30.679 27.827C30.679 28.822 30.464 29.574 30.031 30.08C29.953 30.172 29.866 30.254 29.776 30.33ZM27.163 27.852C27.163 28.648 27.275 29.228 27.5 29.588L27.498 29.593C27.7061 29.926 28.031 30.093 28.476 30.093C29.322 30.093 29.746 29.389 29.746 27.985C29.746 27.198 29.634 26.624 29.41 26.262C29.203 25.929 28.876 25.762 28.433 25.762C27.587 25.762 27.163 26.459 27.163 27.852ZM25.326 30.319C25.67 30.019 25.842 29.633 25.842 29.163L25.848 29.166C25.848 28.628 25.6331 28.303 25.2 27.998C25.2 27.998 24.8574 27.8017 24.511 27.6061C24.33 27.5038 24.1478 27.4018 24.0129 27.328C23.5811 27.088 23.347 26.806 23.347 26.478C23.3475 26.3778 23.37 26.279 23.4128 26.1885C23.4557 26.098 23.5178 26.0179 23.595 25.954C23.7469 25.816 23.9659 25.748 24.249 25.748C24.6155 25.7524 24.9774 25.8306 25.313 25.978L25.526 25.502C25.106 25.228 24.6379 25.092 24.126 25.092C23.626 25.092 23.2209 25.229 22.906 25.507C22.593 25.782 22.436 26.142 22.436 26.592C22.436 27.133 22.646 27.462 23.068 27.769C23.068 27.769 23.843 28.213 24.231 28.426C24.649 28.661 24.879 28.941 24.879 29.271C24.881 29.3899 24.855 29.5076 24.8027 29.6145C24.7506 29.7214 24.674 29.8144 24.579 29.886C24.389 30.033 24.1281 30.106 23.796 30.106C23.439 30.106 23.0439 29.998 22.606 29.778L22.369 30.254C22.8781 30.597 23.399 30.769 23.942 30.769C24.5229 30.769 24.9821 30.619 25.326 30.319ZM33.927 23.499C34.274 23.351 34.689 23.297 35.224 23.311C35.2084 23.2054 35.0012 23.0802 34.859 22.9943C34.8195 22.9704 34.7849 22.9495 34.761 22.933C34.545 22.779 34.321 22.619 34.0909 22.479C33.9709 22.406 33.764 22.351 33.631 22.291C33.451 22.218 33.049 22.145 32.949 22.005C32.7634 21.764 32.6342 21.4718 32.5052 21.1805L32.473 21.108C32.3856 20.9117 32.2866 20.7101 32.1907 20.5073C32.1306 20.3804 32.0718 20.2529 32.0179 20.126C31.964 20.0076 31.9308 19.8997 31.8848 19.7891C31.8685 19.7502 31.8508 19.7111 31.83 19.671C31.3486 18.7385 30.6294 17.9499 29.745 17.385C29.458 17.205 29.1381 17.039 28.783 16.925C28.583 16.866 28.342 16.899 28.1281 16.852H27.988C27.868 16.819 27.767 16.692 27.673 16.626C27.4659 16.486 27.2581 16.392 27.011 16.292C26.924 16.252 26.677 16.158 26.589 16.23C26.537 16.245 26.509 16.266 26.495 16.32C26.442 16.4 26.489 16.521 26.522 16.594C26.623 16.807 26.7629 16.934 26.89 17.114L26.9449 17.1899C27.0463 17.3292 27.1565 17.481 27.224 17.627C27.3171 17.8272 27.3833 18.0389 27.4493 18.2498C27.5066 18.4328 27.5636 18.6152 27.6379 18.789C27.7037 18.9389 27.7841 19.082 27.8781 19.216C27.951 19.319 28.083 19.392 28.125 19.519C28.205 19.653 28.005 20.095 27.958 20.235C27.785 20.782 27.818 21.545 28.0179 22.02C28.098 22.206 28.171 22.428 28.385 22.48C28.3925 22.4719 28.3914 22.4708 28.3942 22.47C28.3962 22.4694 28.4005 22.469 28.412 22.466C28.4224 22.3866 28.431 22.3078 28.4396 22.2302C28.4708 21.9482 28.5004 21.6818 28.6 21.456C28.6477 21.3384 28.7269 21.2434 28.8041 21.151C28.8451 21.1019 28.8854 21.0536 28.92 21.003C28.9635 21.0289 28.9788 21.0884 28.995 21.1488C29.0038 21.1817 29.0129 21.2148 29.027 21.243L29.064 21.3303C29.141 21.5125 29.2223 21.7052 29.317 21.886C29.5325 22.3116 29.7822 22.719 30.064 23.104C30.1702 23.2462 30.2872 23.3799 30.4139 23.504C30.4469 23.5327 30.4808 23.5542 30.5121 23.5798C30.5322 23.5963 30.5511 23.6143 30.568 23.637H30.583V23.657C30.4567 23.6102 30.3595 23.51 30.2646 23.4123C30.2094 23.3553 30.1549 23.2992 30.0959 23.255C29.795 23.028 29.4351 22.688 29.229 22.36C29.1429 22.172 29.049 21.993 28.955 21.805V21.79C28.9286 21.8247 28.9246 21.859 28.9198 21.9004C28.9171 21.9233 28.9142 21.9484 28.907 21.977C28.8826 22.072 28.8705 22.1705 28.8588 22.2657C28.829 22.5065 28.802 22.726 28.587 22.812C28.246 22.953 27.991 22.585 27.884 22.419C27.5439 21.862 27.45 20.926 27.6899 20.169C27.709 20.1106 27.722 20.0483 27.7351 19.9861C27.7592 19.8714 27.7831 19.7571 27.844 19.669C27.8334 19.608 27.8042 19.5692 27.7711 19.5362C27.7391 19.5043 27.7035 19.4779 27.677 19.442C27.583 19.316 27.5031 19.169 27.4301 19.029C27.3217 18.816 27.2366 18.5712 27.1545 18.335C27.1306 18.2663 27.1069 18.1983 27.083 18.132C27.036 18.011 27.0229 17.892 26.976 17.776C26.9297 17.6765 26.8617 17.576 26.7903 17.4793C26.7383 17.4089 26.6844 17.3405 26.636 17.276C26.6102 17.2395 26.5765 17.1973 26.5389 17.1503C26.35 16.9139 26.0638 16.556 26.214 16.194C26.494 15.506 27.478 16.026 27.858 16.266C27.8955 16.2903 27.9348 16.3251 27.9756 16.3611C28.0371 16.4155 28.1018 16.4727 28.168 16.501C28.2595 16.5048 28.3513 16.5103 28.4432 16.5156C28.5181 16.52 28.593 16.5244 28.668 16.528L28.7601 16.5496C29.0391 16.6146 29.3014 16.6758 29.524 16.802C30.673 17.476 31.42 18.165 32.11 19.302C32.257 19.542 32.33 19.803 32.45 20.065C32.6182 20.4592 32.8007 20.8471 32.9969 21.228C33.0615 21.36 33.1174 21.5035 33.193 21.6289C33.217 21.6688 33.243 21.7068 33.272 21.742C33.318 21.809 33.452 21.829 33.532 21.869C33.6697 21.94 33.825 22.0002 33.9731 22.0678C34.0627 22.1088 34.1499 22.1525 34.229 22.203C34.6178 22.4483 34.9869 22.7234 35.333 23.026C35.457 23.138 35.547 23.301 35.667 23.421V23.481C35.5601 23.515 35.453 23.548 35.347 23.575C35.2312 23.6041 35.1219 23.6157 35.0137 23.6271C34.9023 23.6389 34.7921 23.6506 34.677 23.681C34.537 23.721 34.363 23.774 34.217 23.787L34.23 23.801C34.2957 23.9838 34.5728 24.1437 34.7981 24.2738C34.8749 24.3181 34.9457 24.3589 35 24.396C35.2644 24.5847 35.4987 24.8123 35.6949 25.071C35.728 25.104 35.7614 25.1356 35.7948 25.1672C35.8281 25.1988 35.8616 25.2305 35.895 25.264C35.9233 25.3063 35.9395 25.3565 35.959 25.403C35.9705 25.4301 35.983 25.4559 36 25.478V25.498C35.906 25.466 35.859 25.376 35.786 25.326C35.7207 25.2816 35.6552 25.2333 35.5897 25.1852C35.5081 25.1251 35.4265 25.0652 35.3459 25.013C35.0909 24.852 34.796 24.757 34.536 24.597C34.389 24.503 34.249 24.397 34.109 24.287C33.981 24.193 33.843 24.014 33.7629 23.88C33.7159 23.806 33.708 23.719 33.653 23.666C33.6635 23.571 33.7556 23.5471 33.8433 23.5243C33.8728 23.5166 33.9019 23.5091 33.927 23.499Z" fill="#4479A1"/>
</svg>
