<svg width="48" height="48" viewBox="0 0 48 48" fill="none" xmlns="http://www.w3.org/2000/svg">
<path fill-rule="evenodd" clip-rule="evenodd" d="M24 48C37.2549 48 48 37.2548 48 24C48 10.7452 37.2549 0 24 0C10.7451 0 0 10.7452 0 24C0 37.2548 10.7451 48 24 48ZM18.066 22.207H19.01C19.5341 22.207 19.882 22.304 20.057 22.497C20.231 22.69 20.2729 23.022 20.181 23.492C20.0861 23.982 19.903 24.331 19.631 24.541C19.359 24.75 18.9449 24.855 18.389 24.855H17.551L18.066 22.207ZM12 24C12 20.514 17.373 17.688 24 17.688C30.627 17.688 36 20.514 36 24C36 27.486 30.627 30.313 24 30.313C17.373 30.313 12 27.486 12 24ZM19.823 25.69C20.165 25.577 20.479 25.389 20.74 25.139C20.9709 24.926 21.158 24.691 21.301 24.436C21.4471 24.1717 21.55 23.8857 21.606 23.589C21.752 22.839 21.642 22.255 21.276 21.837C20.91 21.418 20.329 21.209 19.532 21.209H16.882L15.652 27.535H17.03L17.3571 25.854H18.538C19.058 25.854 19.4871 25.798 19.823 25.69ZM25.307 23.055L24.764 25.854H26.153L26.725 22.91C26.84 22.311 26.7531 21.878 26.462 21.611C26.171 21.344 25.6429 21.21 24.876 21.21H23.658L23.985 19.528H22.618L21.3879 25.855H22.756L23.46 22.23H24.552C24.903 22.23 25.132 22.288 25.239 22.404C25.3459 22.519 25.37 22.737 25.307 23.055ZM32.056 24.436C32.203 24.1721 32.306 23.886 32.361 23.589C32.507 22.839 32.396 22.255 32.03 21.838C31.6639 21.419 31.083 21.21 30.286 21.21H27.637L26.407 27.536H27.785L28.1121 25.854H29.292C29.813 25.854 30.2419 25.798 30.578 25.69C30.9207 25.5764 31.2339 25.3882 31.495 25.139C31.726 24.926 31.913 24.691 32.056 24.436ZM28.823 22.207H29.766C30.2889 22.207 30.639 22.304 30.813 22.497C30.9871 22.69 31.03 23.022 30.938 23.492C30.842 23.982 30.6591 24.331 30.387 24.541C30.116 24.75 29.702 24.855 29.145 24.855H28.307L28.823 22.207Z" fill="#777BB4"/>
</svg>
