<svg width="48" height="48" viewBox="0 0 48 48" fill="none" xmlns="http://www.w3.org/2000/svg">
<path fill-rule="evenodd" clip-rule="evenodd" d="M24 48C37.2549 48 48 37.2548 48 24C48 10.7452 37.2549 0 24 0C10.7451 0 0 10.7452 0 24C0 37.2548 10.7451 48 24 48ZM30.21 12.21L35.15 14.587C35.4047 14.7094 35.6195 14.9013 35.7699 15.1405C35.9203 15.3796 36 15.6565 36 15.939V32.06C36.0002 32.3423 35.9208 32.619 35.7708 32.8582C35.6207 33.0973 35.4062 33.2893 35.152 33.412L30.21 35.789C29.931 35.9235 29.6171 35.9678 29.3118 35.9159C29.0063 35.864 28.7249 35.7182 28.506 35.499L19.046 26.869L14.926 29.997C14.7401 30.138 14.5107 30.2095 14.2777 30.199C14.0447 30.1887 13.8225 30.097 13.65 29.94L12.327 28.739C12.224 28.6453 12.1416 28.5312 12.0853 28.4039C12.0289 28.2766 11.9998 28.1389 11.9996 27.9997C11.9995 27.8605 12.0286 27.7228 12.0847 27.5954C12.141 27.468 12.2231 27.3538 12.326 27.26L15.899 24L12.326 20.74C12.2231 20.6462 12.141 20.532 12.0847 20.4046C12.0562 20.3399 12.0347 20.2725 12.0204 20.2036C12.0066 20.1369 11.9996 20.0688 11.9996 20.0003C11.9998 19.8611 12.0289 19.7234 12.0853 19.5961C12.1416 19.4688 12.224 19.3547 12.327 19.261L13.649 18.059C13.8215 17.902 14.0436 17.8104 14.2767 17.7999C14.5098 17.7896 14.7391 17.861 14.925 18.002L19.045 21.13L28.505 12.5C28.724 12.2808 29.0057 12.1351 29.3113 12.0832C29.6167 12.0312 29.9308 12.0756 30.21 12.21ZM22.826 24L30.004 29.448V18.552L22.826 24Z" fill="#007ACC"/>
</svg>
